<?xml version="1.0" encoding="utf-8"?>
<!-- Generator: Adobe Illustrator 18.1.1, SVG Export Plug-In . SVG Version: 6.00 Build 0)  -->
<!DOCTYPE svg PUBLIC "-//W3C//DTD SVG 1.1//EN" "http://www.w3.org/Graphics/SVG/1.1/DTD/svg11.dtd">
<svg version="1.1" id="Layer_1" xmlns="http://www.w3.org/2000/svg" xmlns:xlink="http://www.w3.org/1999/xlink" x="0px" y="0px"
	 viewBox="0 0 22 21" enable-background="new 0 0 22 21" xml:space="preserve">
<path fill-rule="evenodd" clip-rule="evenodd" fill="#818080" d="M21.5,20.4c-0.7,0.8-1.9,0.9-2.7,0.2l-7-6.4
	c-0.5-0.5-0.7-1.1-0.6-1.7c-1.1,1-2.5,1.5-4,1.6c-1.8,0.1-3.6-0.5-5-1.8C0.9,11,0.1,9.2,0,7.4c-0.1-1.9,0.5-3.7,1.7-5.1
	c2.5-2.9,6.9-3.1,9.7-0.5c2.6,2.3,3,6.2,1.2,9c0.6-0.2,1.3,0,1.8,0.4l7,6.4C22.1,18.4,22.2,19.6,21.5,20.4z M11.6,6.7
	C11.6,5.4,11,4.2,10,3.4c-2-1.8-5-1.6-6.8,0.4c-1.8,2-1.6,5.1,0.4,6.9c2,1.8,5,1.6,6.8-0.4C11.3,9.3,11.7,8,11.6,6.7z"/>
</svg>
