<?xml version="1.0" encoding="utf-8"?>
<!-- Generator: Adobe Illustrator 18.1.1, SVG Export Plug-In . SVG Version: 6.00 Build 0)  -->
<!DOCTYPE svg PUBLIC "-//W3C//DTD SVG 1.1//EN" "http://www.w3.org/Graphics/SVG/1.1/DTD/svg11.dtd">
<svg version="1.1" id="Layer_1" xmlns="http://www.w3.org/2000/svg" xmlns:xlink="http://www.w3.org/1999/xlink" x="0px" y="0px"
	 viewBox="0 0 18 20" enable-background="new 0 0 18 20" xml:space="preserve">
<path fill="#818080" d="M15,0c-1.7,0-3,1.3-3,3c0,0.2,0,0.5,0.1,0.7L5,7.8C4.5,7.3,3.8,7,3,7c-1.7,0-3,1.3-3,3c0,1.7,1.3,3,3,3
	c0.8,0,1.5-0.3,2-0.8l7.1,4.2c0,0.2-0.1,0.4-0.1,0.7c0,1.6,1.3,2.9,2.9,2.9c1.6,0,2.9-1.3,2.9-2.9c0-1.6-1.3-2.9-2.9-2.9
	c-0.8,0-1.4,0.3-2,0.8l-7.1-4.2C6,10.5,6,10.3,6,10c0-0.2,0-0.5-0.1-0.7L13,5.2C13.5,5.7,14.2,6,15,6c1.7,0,3-1.3,3-3
	C18,1.3,16.7,0,15,0"/>
</svg>
